<?xml version="1.0" encoding="utf-8"?>
<!DOCTYPE svg PUBLIC "-//W3C//DTD SVG 20010904//EN" "http://www.w3.org/TR/2001/REC-SVG-20010904/DTD/svg10.dtd">
<svg xmlns="http://www.w3.org/2000/svg" xml:space="preserve" xmlns:xlink="http://www.w3.org/1999/xlink" width="372" height="372" viewBox="0 0 372 372">
<desc></desc>
<rect width="372" height="372" fill="#ffffff" cx="0" cy="0" />
<defs>
<rect id="p" width="12" height="12" />
</defs>
<g fill="#000000">
<use x="12" y="12" xlink:href="#p" />
<use x="24" y="12" xlink:href="#p" />
<use x="36" y="12" xlink:href="#p" />
<use x="48" y="12" xlink:href="#p" />
<use x="60" y="12" xlink:href="#p" />
<use x="72" y="12" xlink:href="#p" />
<use x="84" y="12" xlink:href="#p" />
<use x="156" y="12" xlink:href="#p" />
<use x="180" y="12" xlink:href="#p" />
<use x="192" y="12" xlink:href="#p" />
<use x="216" y="12" xlink:href="#p" />
<use x="276" y="12" xlink:href="#p" />
<use x="288" y="12" xlink:href="#p" />
<use x="300" y="12" xlink:href="#p" />
<use x="312" y="12" xlink:href="#p" />
<use x="324" y="12" xlink:href="#p" />
<use x="336" y="12" xlink:href="#p" />
<use x="348" y="12" xlink:href="#p" />
<use x="12" y="24" xlink:href="#p" />
<use x="84" y="24" xlink:href="#p" />
<use x="120" y="24" xlink:href="#p" />
<use x="156" y="24" xlink:href="#p" />
<use x="180" y="24" xlink:href="#p" />
<use x="192" y="24" xlink:href="#p" />
<use x="204" y="24" xlink:href="#p" />
<use x="276" y="24" xlink:href="#p" />
<use x="348" y="24" xlink:href="#p" />
<use x="12" y="36" xlink:href="#p" />
<use x="36" y="36" xlink:href="#p" />
<use x="48" y="36" xlink:href="#p" />
<use x="60" y="36" xlink:href="#p" />
<use x="84" y="36" xlink:href="#p" />
<use x="120" y="36" xlink:href="#p" />
<use x="132" y="36" xlink:href="#p" />
<use x="180" y="36" xlink:href="#p" />
<use x="204" y="36" xlink:href="#p" />
<use x="240" y="36" xlink:href="#p" />
<use x="276" y="36" xlink:href="#p" />
<use x="300" y="36" xlink:href="#p" />
<use x="312" y="36" xlink:href="#p" />
<use x="324" y="36" xlink:href="#p" />
<use x="348" y="36" xlink:href="#p" />
<use x="12" y="48" xlink:href="#p" />
<use x="36" y="48" xlink:href="#p" />
<use x="48" y="48" xlink:href="#p" />
<use x="60" y="48" xlink:href="#p" />
<use x="84" y="48" xlink:href="#p" />
<use x="132" y="48" xlink:href="#p" />
<use x="156" y="48" xlink:href="#p" />
<use x="216" y="48" xlink:href="#p" />
<use x="252" y="48" xlink:href="#p" />
<use x="276" y="48" xlink:href="#p" />
<use x="300" y="48" xlink:href="#p" />
<use x="312" y="48" xlink:href="#p" />
<use x="324" y="48" xlink:href="#p" />
<use x="348" y="48" xlink:href="#p" />
<use x="12" y="60" xlink:href="#p" />
<use x="36" y="60" xlink:href="#p" />
<use x="48" y="60" xlink:href="#p" />
<use x="60" y="60" xlink:href="#p" />
<use x="84" y="60" xlink:href="#p" />
<use x="108" y="60" xlink:href="#p" />
<use x="168" y="60" xlink:href="#p" />
<use x="180" y="60" xlink:href="#p" />
<use x="192" y="60" xlink:href="#p" />
<use x="240" y="60" xlink:href="#p" />
<use x="276" y="60" xlink:href="#p" />
<use x="300" y="60" xlink:href="#p" />
<use x="312" y="60" xlink:href="#p" />
<use x="324" y="60" xlink:href="#p" />
<use x="348" y="60" xlink:href="#p" />
<use x="12" y="72" xlink:href="#p" />
<use x="84" y="72" xlink:href="#p" />
<use x="132" y="72" xlink:href="#p" />
<use x="192" y="72" xlink:href="#p" />
<use x="216" y="72" xlink:href="#p" />
<use x="228" y="72" xlink:href="#p" />
<use x="240" y="72" xlink:href="#p" />
<use x="252" y="72" xlink:href="#p" />
<use x="276" y="72" xlink:href="#p" />
<use x="348" y="72" xlink:href="#p" />
<use x="12" y="84" xlink:href="#p" />
<use x="24" y="84" xlink:href="#p" />
<use x="36" y="84" xlink:href="#p" />
<use x="48" y="84" xlink:href="#p" />
<use x="60" y="84" xlink:href="#p" />
<use x="72" y="84" xlink:href="#p" />
<use x="84" y="84" xlink:href="#p" />
<use x="108" y="84" xlink:href="#p" />
<use x="132" y="84" xlink:href="#p" />
<use x="156" y="84" xlink:href="#p" />
<use x="180" y="84" xlink:href="#p" />
<use x="204" y="84" xlink:href="#p" />
<use x="228" y="84" xlink:href="#p" />
<use x="252" y="84" xlink:href="#p" />
<use x="276" y="84" xlink:href="#p" />
<use x="288" y="84" xlink:href="#p" />
<use x="300" y="84" xlink:href="#p" />
<use x="312" y="84" xlink:href="#p" />
<use x="324" y="84" xlink:href="#p" />
<use x="336" y="84" xlink:href="#p" />
<use x="348" y="84" xlink:href="#p" />
<use x="108" y="96" xlink:href="#p" />
<use x="120" y="96" xlink:href="#p" />
<use x="156" y="96" xlink:href="#p" />
<use x="180" y="96" xlink:href="#p" />
<use x="240" y="96" xlink:href="#p" />
<use x="252" y="96" xlink:href="#p" />
<use x="36" y="108" xlink:href="#p" />
<use x="48" y="108" xlink:href="#p" />
<use x="84" y="108" xlink:href="#p" />
<use x="96" y="108" xlink:href="#p" />
<use x="108" y="108" xlink:href="#p" />
<use x="168" y="108" xlink:href="#p" />
<use x="228" y="108" xlink:href="#p" />
<use x="264" y="108" xlink:href="#p" />
<use x="276" y="108" xlink:href="#p" />
<use x="300" y="108" xlink:href="#p" />
<use x="24" y="120" xlink:href="#p" />
<use x="36" y="120" xlink:href="#p" />
<use x="48" y="120" xlink:href="#p" />
<use x="120" y="120" xlink:href="#p" />
<use x="144" y="120" xlink:href="#p" />
<use x="156" y="120" xlink:href="#p" />
<use x="168" y="120" xlink:href="#p" />
<use x="180" y="120" xlink:href="#p" />
<use x="216" y="120" xlink:href="#p" />
<use x="228" y="120" xlink:href="#p" />
<use x="252" y="120" xlink:href="#p" />
<use x="276" y="120" xlink:href="#p" />
<use x="300" y="120" xlink:href="#p" />
<use x="312" y="120" xlink:href="#p" />
<use x="324" y="120" xlink:href="#p" />
<use x="348" y="120" xlink:href="#p" />
<use x="12" y="132" xlink:href="#p" />
<use x="60" y="132" xlink:href="#p" />
<use x="84" y="132" xlink:href="#p" />
<use x="96" y="132" xlink:href="#p" />
<use x="108" y="132" xlink:href="#p" />
<use x="120" y="132" xlink:href="#p" />
<use x="144" y="132" xlink:href="#p" />
<use x="168" y="132" xlink:href="#p" />
<use x="204" y="132" xlink:href="#p" />
<use x="216" y="132" xlink:href="#p" />
<use x="240" y="132" xlink:href="#p" />
<use x="252" y="132" xlink:href="#p" />
<use x="264" y="132" xlink:href="#p" />
<use x="276" y="132" xlink:href="#p" />
<use x="288" y="132" xlink:href="#p" />
<use x="300" y="132" xlink:href="#p" />
<use x="324" y="132" xlink:href="#p" />
<use x="336" y="132" xlink:href="#p" />
<use x="12" y="144" xlink:href="#p" />
<use x="24" y="144" xlink:href="#p" />
<use x="36" y="144" xlink:href="#p" />
<use x="48" y="144" xlink:href="#p" />
<use x="60" y="144" xlink:href="#p" />
<use x="132" y="144" xlink:href="#p" />
<use x="144" y="144" xlink:href="#p" />
<use x="156" y="144" xlink:href="#p" />
<use x="192" y="144" xlink:href="#p" />
<use x="204" y="144" xlink:href="#p" />
<use x="216" y="144" xlink:href="#p" />
<use x="252" y="144" xlink:href="#p" />
<use x="264" y="144" xlink:href="#p" />
<use x="348" y="144" xlink:href="#p" />
<use x="48" y="156" xlink:href="#p" />
<use x="60" y="156" xlink:href="#p" />
<use x="72" y="156" xlink:href="#p" />
<use x="84" y="156" xlink:href="#p" />
<use x="108" y="156" xlink:href="#p" />
<use x="120" y="156" xlink:href="#p" />
<use x="144" y="156" xlink:href="#p" />
<use x="180" y="156" xlink:href="#p" />
<use x="204" y="156" xlink:href="#p" />
<use x="240" y="156" xlink:href="#p" />
<use x="264" y="156" xlink:href="#p" />
<use x="324" y="156" xlink:href="#p" />
<use x="336" y="156" xlink:href="#p" />
<use x="348" y="156" xlink:href="#p" />
<use x="12" y="168" xlink:href="#p" />
<use x="24" y="168" xlink:href="#p" />
<use x="60" y="168" xlink:href="#p" />
<use x="96" y="168" xlink:href="#p" />
<use x="108" y="168" xlink:href="#p" />
<use x="120" y="168" xlink:href="#p" />
<use x="132" y="168" xlink:href="#p" />
<use x="168" y="168" xlink:href="#p" />
<use x="180" y="168" xlink:href="#p" />
<use x="192" y="168" xlink:href="#p" />
<use x="216" y="168" xlink:href="#p" />
<use x="240" y="168" xlink:href="#p" />
<use x="276" y="168" xlink:href="#p" />
<use x="288" y="168" xlink:href="#p" />
<use x="312" y="168" xlink:href="#p" />
<use x="324" y="168" xlink:href="#p" />
<use x="348" y="168" xlink:href="#p" />
<use x="24" y="180" xlink:href="#p" />
<use x="60" y="180" xlink:href="#p" />
<use x="72" y="180" xlink:href="#p" />
<use x="84" y="180" xlink:href="#p" />
<use x="120" y="180" xlink:href="#p" />
<use x="144" y="180" xlink:href="#p" />
<use x="156" y="180" xlink:href="#p" />
<use x="168" y="180" xlink:href="#p" />
<use x="204" y="180" xlink:href="#p" />
<use x="228" y="180" xlink:href="#p" />
<use x="240" y="180" xlink:href="#p" />
<use x="276" y="180" xlink:href="#p" />
<use x="300" y="180" xlink:href="#p" />
<use x="312" y="180" xlink:href="#p" />
<use x="336" y="180" xlink:href="#p" />
<use x="348" y="180" xlink:href="#p" />
<use x="24" y="192" xlink:href="#p" />
<use x="48" y="192" xlink:href="#p" />
<use x="60" y="192" xlink:href="#p" />
<use x="72" y="192" xlink:href="#p" />
<use x="96" y="192" xlink:href="#p" />
<use x="120" y="192" xlink:href="#p" />
<use x="132" y="192" xlink:href="#p" />
<use x="180" y="192" xlink:href="#p" />
<use x="192" y="192" xlink:href="#p" />
<use x="216" y="192" xlink:href="#p" />
<use x="228" y="192" xlink:href="#p" />
<use x="240" y="192" xlink:href="#p" />
<use x="252" y="192" xlink:href="#p" />
<use x="312" y="192" xlink:href="#p" />
<use x="336" y="192" xlink:href="#p" />
<use x="348" y="192" xlink:href="#p" />
<use x="36" y="204" xlink:href="#p" />
<use x="60" y="204" xlink:href="#p" />
<use x="84" y="204" xlink:href="#p" />
<use x="96" y="204" xlink:href="#p" />
<use x="108" y="204" xlink:href="#p" />
<use x="120" y="204" xlink:href="#p" />
<use x="144" y="204" xlink:href="#p" />
<use x="156" y="204" xlink:href="#p" />
<use x="180" y="204" xlink:href="#p" />
<use x="192" y="204" xlink:href="#p" />
<use x="204" y="204" xlink:href="#p" />
<use x="240" y="204" xlink:href="#p" />
<use x="300" y="204" xlink:href="#p" />
<use x="312" y="204" xlink:href="#p" />
<use x="336" y="204" xlink:href="#p" />
<use x="348" y="204" xlink:href="#p" />
<use x="36" y="216" xlink:href="#p" />
<use x="48" y="216" xlink:href="#p" />
<use x="72" y="216" xlink:href="#p" />
<use x="96" y="216" xlink:href="#p" />
<use x="156" y="216" xlink:href="#p" />
<use x="168" y="216" xlink:href="#p" />
<use x="180" y="216" xlink:href="#p" />
<use x="204" y="216" xlink:href="#p" />
<use x="228" y="216" xlink:href="#p" />
<use x="240" y="216" xlink:href="#p" />
<use x="276" y="216" xlink:href="#p" />
<use x="288" y="216" xlink:href="#p" />
<use x="312" y="216" xlink:href="#p" />
<use x="12" y="228" xlink:href="#p" />
<use x="36" y="228" xlink:href="#p" />
<use x="60" y="228" xlink:href="#p" />
<use x="84" y="228" xlink:href="#p" />
<use x="108" y="228" xlink:href="#p" />
<use x="120" y="228" xlink:href="#p" />
<use x="132" y="228" xlink:href="#p" />
<use x="144" y="228" xlink:href="#p" />
<use x="156" y="228" xlink:href="#p" />
<use x="168" y="228" xlink:href="#p" />
<use x="180" y="228" xlink:href="#p" />
<use x="192" y="228" xlink:href="#p" />
<use x="216" y="228" xlink:href="#p" />
<use x="252" y="228" xlink:href="#p" />
<use x="276" y="228" xlink:href="#p" />
<use x="300" y="228" xlink:href="#p" />
<use x="312" y="228" xlink:href="#p" />
<use x="48" y="240" xlink:href="#p" />
<use x="60" y="240" xlink:href="#p" />
<use x="96" y="240" xlink:href="#p" />
<use x="108" y="240" xlink:href="#p" />
<use x="120" y="240" xlink:href="#p" />
<use x="144" y="240" xlink:href="#p" />
<use x="156" y="240" xlink:href="#p" />
<use x="180" y="240" xlink:href="#p" />
<use x="204" y="240" xlink:href="#p" />
<use x="216" y="240" xlink:href="#p" />
<use x="252" y="240" xlink:href="#p" />
<use x="264" y="240" xlink:href="#p" />
<use x="276" y="240" xlink:href="#p" />
<use x="324" y="240" xlink:href="#p" />
<use x="336" y="240" xlink:href="#p" />
<use x="348" y="240" xlink:href="#p" />
<use x="24" y="252" xlink:href="#p" />
<use x="48" y="252" xlink:href="#p" />
<use x="60" y="252" xlink:href="#p" />
<use x="72" y="252" xlink:href="#p" />
<use x="84" y="252" xlink:href="#p" />
<use x="120" y="252" xlink:href="#p" />
<use x="144" y="252" xlink:href="#p" />
<use x="156" y="252" xlink:href="#p" />
<use x="168" y="252" xlink:href="#p" />
<use x="192" y="252" xlink:href="#p" />
<use x="204" y="252" xlink:href="#p" />
<use x="228" y="252" xlink:href="#p" />
<use x="240" y="252" xlink:href="#p" />
<use x="252" y="252" xlink:href="#p" />
<use x="264" y="252" xlink:href="#p" />
<use x="276" y="252" xlink:href="#p" />
<use x="288" y="252" xlink:href="#p" />
<use x="300" y="252" xlink:href="#p" />
<use x="312" y="252" xlink:href="#p" />
<use x="324" y="252" xlink:href="#p" />
<use x="348" y="252" xlink:href="#p" />
<use x="108" y="264" xlink:href="#p" />
<use x="120" y="264" xlink:href="#p" />
<use x="132" y="264" xlink:href="#p" />
<use x="144" y="264" xlink:href="#p" />
<use x="156" y="264" xlink:href="#p" />
<use x="168" y="264" xlink:href="#p" />
<use x="252" y="264" xlink:href="#p" />
<use x="300" y="264" xlink:href="#p" />
<use x="312" y="264" xlink:href="#p" />
<use x="336" y="264" xlink:href="#p" />
<use x="348" y="264" xlink:href="#p" />
<use x="12" y="276" xlink:href="#p" />
<use x="24" y="276" xlink:href="#p" />
<use x="36" y="276" xlink:href="#p" />
<use x="48" y="276" xlink:href="#p" />
<use x="60" y="276" xlink:href="#p" />
<use x="72" y="276" xlink:href="#p" />
<use x="84" y="276" xlink:href="#p" />
<use x="108" y="276" xlink:href="#p" />
<use x="120" y="276" xlink:href="#p" />
<use x="132" y="276" xlink:href="#p" />
<use x="144" y="276" xlink:href="#p" />
<use x="168" y="276" xlink:href="#p" />
<use x="192" y="276" xlink:href="#p" />
<use x="204" y="276" xlink:href="#p" />
<use x="216" y="276" xlink:href="#p" />
<use x="240" y="276" xlink:href="#p" />
<use x="252" y="276" xlink:href="#p" />
<use x="276" y="276" xlink:href="#p" />
<use x="300" y="276" xlink:href="#p" />
<use x="324" y="276" xlink:href="#p" />
<use x="12" y="288" xlink:href="#p" />
<use x="84" y="288" xlink:href="#p" />
<use x="132" y="288" xlink:href="#p" />
<use x="156" y="288" xlink:href="#p" />
<use x="168" y="288" xlink:href="#p" />
<use x="180" y="288" xlink:href="#p" />
<use x="216" y="288" xlink:href="#p" />
<use x="240" y="288" xlink:href="#p" />
<use x="252" y="288" xlink:href="#p" />
<use x="300" y="288" xlink:href="#p" />
<use x="348" y="288" xlink:href="#p" />
<use x="12" y="300" xlink:href="#p" />
<use x="36" y="300" xlink:href="#p" />
<use x="48" y="300" xlink:href="#p" />
<use x="60" y="300" xlink:href="#p" />
<use x="84" y="300" xlink:href="#p" />
<use x="120" y="300" xlink:href="#p" />
<use x="156" y="300" xlink:href="#p" />
<use x="168" y="300" xlink:href="#p" />
<use x="204" y="300" xlink:href="#p" />
<use x="216" y="300" xlink:href="#p" />
<use x="228" y="300" xlink:href="#p" />
<use x="252" y="300" xlink:href="#p" />
<use x="264" y="300" xlink:href="#p" />
<use x="276" y="300" xlink:href="#p" />
<use x="288" y="300" xlink:href="#p" />
<use x="300" y="300" xlink:href="#p" />
<use x="312" y="300" xlink:href="#p" />
<use x="324" y="300" xlink:href="#p" />
<use x="348" y="300" xlink:href="#p" />
<use x="12" y="312" xlink:href="#p" />
<use x="36" y="312" xlink:href="#p" />
<use x="48" y="312" xlink:href="#p" />
<use x="60" y="312" xlink:href="#p" />
<use x="84" y="312" xlink:href="#p" />
<use x="108" y="312" xlink:href="#p" />
<use x="120" y="312" xlink:href="#p" />
<use x="144" y="312" xlink:href="#p" />
<use x="156" y="312" xlink:href="#p" />
<use x="168" y="312" xlink:href="#p" />
<use x="180" y="312" xlink:href="#p" />
<use x="240" y="312" xlink:href="#p" />
<use x="264" y="312" xlink:href="#p" />
<use x="300" y="312" xlink:href="#p" />
<use x="312" y="312" xlink:href="#p" />
<use x="336" y="312" xlink:href="#p" />
<use x="12" y="324" xlink:href="#p" />
<use x="36" y="324" xlink:href="#p" />
<use x="48" y="324" xlink:href="#p" />
<use x="60" y="324" xlink:href="#p" />
<use x="84" y="324" xlink:href="#p" />
<use x="108" y="324" xlink:href="#p" />
<use x="180" y="324" xlink:href="#p" />
<use x="216" y="324" xlink:href="#p" />
<use x="228" y="324" xlink:href="#p" />
<use x="240" y="324" xlink:href="#p" />
<use x="264" y="324" xlink:href="#p" />
<use x="324" y="324" xlink:href="#p" />
<use x="348" y="324" xlink:href="#p" />
<use x="12" y="336" xlink:href="#p" />
<use x="84" y="336" xlink:href="#p" />
<use x="132" y="336" xlink:href="#p" />
<use x="156" y="336" xlink:href="#p" />
<use x="168" y="336" xlink:href="#p" />
<use x="180" y="336" xlink:href="#p" />
<use x="192" y="336" xlink:href="#p" />
<use x="216" y="336" xlink:href="#p" />
<use x="228" y="336" xlink:href="#p" />
<use x="276" y="336" xlink:href="#p" />
<use x="300" y="336" xlink:href="#p" />
<use x="312" y="336" xlink:href="#p" />
<use x="336" y="336" xlink:href="#p" />
<use x="12" y="348" xlink:href="#p" />
<use x="24" y="348" xlink:href="#p" />
<use x="36" y="348" xlink:href="#p" />
<use x="48" y="348" xlink:href="#p" />
<use x="60" y="348" xlink:href="#p" />
<use x="72" y="348" xlink:href="#p" />
<use x="84" y="348" xlink:href="#p" />
<use x="132" y="348" xlink:href="#p" />
<use x="180" y="348" xlink:href="#p" />
<use x="204" y="348" xlink:href="#p" />
<use x="216" y="348" xlink:href="#p" />
<use x="240" y="348" xlink:href="#p" />
<use x="276" y="348" xlink:href="#p" />
<use x="288" y="348" xlink:href="#p" />
<use x="336" y="348" xlink:href="#p" />
</g>
</svg>